<svg id="Line" height="512" viewBox="0 0 512 512" width="512" xmlns="http://www.w3.org/2000/svg"><g><path d="m488 416h-152a7.9986 7.9986 0 0 0 -5.6567 2.3433l-13.6568 13.6567h-121.373l-13.6568-13.6567a7.9986 7.9986 0 0 0 -5.6567-2.3433h-152a8 8 0 0 0 -8 8v18a38.0433 38.0433 0 0 0 38 38h42v-16h-42a22.0248 22.0248 0 0 1 -22-22v-10h140.6865l13.6568 13.6567a7.9986 7.9986 0 0 0 5.6567 2.3433h128a7.9986 7.9986 0 0 0 5.6567-2.3433l13.6568-13.6567h140.6865v10a22.0248 22.0248 0 0 1 -22 22h-346v16h346a38.0433 38.0433 0 0 0 38-38v-18a8 8 0 0 0 -8-8z"/><path d="m448 64h16v16h-16z"/><path d="m112 64h16v16h-16z"/><path d="m48 64h16v16h-16z"/><path d="m80 64h16v16h-16z"/><path d="m488 32h-464a8 8 0 0 0 -8 8v360h16v-288h448v40h16v-112a8 8 0 0 0 -8-8zm-456 64v-48h448v48z"/><path d="m80 156v72.6865l-29.6567 29.6568a7.9991 7.9991 0 0 0 0 11.3134l29.6567 29.6568v72.6865a28.0314 28.0314 0 0 0 28 28h12v-16h-12a12.0137 12.0137 0 0 1 -12-12v-76a7.9986 7.9986 0 0 0 -2.3433-5.6567l-26.3432-26.3433 26.3432-26.3433a7.9986 7.9986 0 0 0 2.3433-5.6567v-76a12.0137 12.0137 0 0 1 12-12h12v-16h-12a28.0314 28.0314 0 0 0 -28 28z"/><path d="m404 128h-12v16h12a12.0137 12.0137 0 0 1 12 12v76a7.9986 7.9986 0 0 0 2.3433 5.6567l26.3432 26.3433-26.3432 26.3433a7.9986 7.9986 0 0 0 -2.3433 5.6567v76a12.0137 12.0137 0 0 1 -12 12h-12v16h12a28.0314 28.0314 0 0 0 28-28v-72.6865l29.6567-29.6568a7.9991 7.9991 0 0 0 0-11.3134l-29.6567-29.6568v-72.6865a28.0314 28.0314 0 0 0 -28-28z"/><path d="m480 168h16v232h-16z"/><path d="m138.3433 154.3433-24 24a7.9991 7.9991 0 0 0 0 11.3134l24 24 11.3134-11.3134-18.3432-18.3433 18.3432-18.3433z"/><path d="m205.6567 213.6567 24-24a7.9991 7.9991 0 0 0 0-11.3134l-24-24-11.3134 11.3134 18.3432 18.3433-18.3432 18.3433z"/><path d="m164 149.824h16v68.352h-16z" transform="matrix(.936 -.351 .351 .936 -53.655 72.109)"/><path d="m112 248h64v16h-64z"/><path d="m192 248h24v16h-24z"/><path d="m232 248h16v16h-16z"/><path d="m264 248h80v16h-80z"/><path d="m360 248h40v16h-40z"/><path d="m336 288h64v16h-64z"/><path d="m296 288h24v16h-24z"/><path d="m264 288h16v16h-16z"/><path d="m168 288h80v16h-80z"/><path d="m112 288h40v16h-40z"/><path d="m280 328h40v16h-40z"/><path d="m224 328h40v16h-40z"/><path d="m152 328h56v16h-56z"/><path d="m112 328h24v16h-24z"/><path d="m336 368h40v16h-40z"/></g></svg>